
            <svg xmlns="http://www.w3.org/2000/svg" viewBox="0 0 192 192">
                <defs>
                    <style>
                        .a{fill:#fff;}
                        .usLogoBack{fill:#3075A6;}
                    </style>
                </defs>
                <title>USERSIDE Sign</title>
                <path class="a" d="M113.27,122.21c-10.3,6.85-23.44,9.28-36.91,9.16C64,131.25,51.71,129,39.73,126.28A190.77,190.77,0,0,0,0,121.58V192H162.84C144.43,171.53,107.7,150.4,113.27,122.21Z"/>
                <path class="a" d="M109.74,50.75c13.67,12.85,25.71,28.53,20.78,47.31C147,88.39,171.35,90.18,192,94.78V0H75.33C68.45,20.53,97,38.76,109.74,50.75Z"/>
                <path class="a" d="M34.74,118.26c11.4,2.35,22.53,5.38,34.18,6.39,12.07,1,26.27,1.5,37.14-4.85,11.36-6.63,20.22-22.13,16.81-35.57-5.36-21.12-26.73-34.05-41.28-48.6-10-10-19.11-21.87-14.65-35.63H0V115.15A168,168,0,0,1,34.74,118.26Z"/>
                <path class="a" d="M120.93,124.69c-0.67,29.42,36.1,46.13,52.68,67.31H192V101.8C163.43,95.26,121.65,92.42,120.93,124.69Z"/>
                <path class="usLogoBack" d="M113.27,122.21c-10.3,6.85-23.44,9.28-36.91,9.16C64,131.25,51.71,129,39.73,126.28A190.77,190.77,0,0,0,0,121.58V192H162.84C144.43,171.53,107.7,150.4,113.27,122.21Z"/>
                <path class="usLogoBack" d="M109.74,50.75c13.67,12.85,25.71,28.53,20.78,47.31C147,88.39,171.35,90.18,192,94.78V0H75.33C68.45,20.53,97,38.76,109.74,50.75Z"/>
                <path class="usLogoBack" d="M34.74,118.26c11.4,2.35,22.53,5.38,34.18,6.39,12.07,1,26.27,1.5,37.14-4.85,11.36-6.63,20.22-22.13,16.81-35.57-5.36-21.12-26.73-34.05-41.28-48.6-10-10-19.11-21.87-14.65-35.63H0V115.15A168,168,0,0,1,34.74,118.26Z"/>
                <path class="usLogoBack" d="M120.93,124.69c-0.67,29.42,36.1,46.13,52.68,67.31H192V101.8C163.43,95.26,121.65,92.42,120.93,124.69Z"/>
            </svg>